<svg xmlns="http://www.w3.org/2000/svg" version="1.1" xmlns:xlink="http://www.w3.org/1999/xlink" xmlns:svgjs="http://svgjs.com/svgjs" width="1000" height="1000"><rect width="1000" height="1000" rx="0" ry="0" fill="#000000"></rect><g transform="matrix(8,0,0,8,99.99997329711914,100)"><svg xmlns="http://www.w3.org/2000/svg" version="1.1" xmlns:xlink="http://www.w3.org/1999/xlink" xmlns:svgjs="http://svgjs.com/svgjs" width="100" height="100"><svg xmlns="http://www.w3.org/2000/svg" viewBox="0 0 100 100">
  <defs>
    <style>
      .cls-1 {
        fill: #ffffff; /* Changed to white */
      }
    </style>
  </defs>
  <g id="Layer_2" data-name="Layer 2">
    <g id="Layer_1-2" data-name="Layer 1">
      <rect class="cls-1" x="81.82" width="18.18" height="18.18" transform="translate(181.82 18.18) rotate(180)"></rect>
      <rect class="cls-1" x="81.82" y="27.27" width="18.18" height="45.45" transform="translate(181.82 100) rotate(180)"></rect>
      <polygon class="cls-1" points="72.73 0 72.73 81.82 100 81.82 100 100 72.73 100 54.55 100 54.55 0 72.73 0"></polygon>
      <polygon class="cls-1" points="27.27 0 0 0 0 18.18 27.27 18.18 27.27 81.82 18.18 81.82 18.18 27.27 0 27.27 0 81.82 0 100 27.27 100 45.45 100 45.45 0 27.27 0"></polygon>
    </g>
  </g>
</svg></svg></g></svg>